<svg width="120" height="40" viewBox="0 0 120 40" fill="none" xmlns="http://www.w3.org/2000/svg">
  <!-- Shield background -->
  <path d="M20 4L12 8V18C12 26 20 32 20 32C20 32 28 26 28 18V8L20 4Z" fill="#8B0000" stroke="#000" stroke-width="1"/>
  
  <!-- Inner shield -->
  <path d="M20 6L14 9V17C14 23 20 28 20 28C20 28 26 23 26 17V9L20 6Z" fill="#FFD700" stroke="#8B0000" stroke-width="0.5"/>
  
  <!-- Security symbol -->
  <circle cx="20" cy="16" r="4" fill="#8B0000"/>
  <path d="M18 16L19 17L22 14" stroke="#FFD700" stroke-width="1.5" stroke-linecap="round" stroke-linejoin="round"/>
  
  <!-- Company text -->
  <text x="36" y="14" font-family="Arial, sans-serif" font-size="8" font-weight="bold" fill="#8B0000">HYENNA</text>
  <text x="36" y="22" font-family="Arial, sans-serif" font-size="6" fill="#8B0000">SECURITY</text>
  <text x="36" y="28" font-family="Arial, sans-serif" font-size="6" fill="#8B0000">SERVICES</text>
  
  <!-- Decorative elements -->
  <circle cx="6" cy="20" r="2" fill="#8B0000" opacity="0.3"/>
  <circle cx="34" cy="32" r="1.5" fill="#FFD700" opacity="0.5"/>
  <circle cx="110" cy="8" r="1" fill="#8B0000" opacity="0.4"/>
</svg>